<svg version="1.1" id="Layer_1" xmlns="http://www.w3.org/2000/svg" xmlns:xlink="http://www.w3.org/1999/xlink" x="0px" y="0px"
	 width="100%" viewBox="0 0 84 85" enable-background="new 0 0 84 85" xml:space="preserve">
<path fill="#F9B24E" opacity="1.000000" stroke="none" 
	d="
M10.000001,86.000000 
	C7.025475,86.000000 4.050950,86.000000 1.000000,86.000000 
	C1.000000,71.979187 1.000000,57.958252 1.468657,43.468613 
	C15.586871,42.920918 29.236427,42.841934 42.984970,42.826599 
	C43.083961,42.890247 43.212311,43.087543 43.140457,43.526062 
	C42.991863,46.643970 42.915131,49.323364 42.509258,52.192356 
	C39.815033,66.602432 27.751045,79.768929 12.321997,84.048904 
	C11.435783,84.294746 10.768940,85.331398 10.000001,86.000000 
z"/>
<path fill="#FE7E02" opacity="1.000000" stroke="none" 
	d="
M42.885986,42.762947 
	C29.236427,42.841934 15.586871,42.920918 1.468657,42.999954 
	C1.000000,38.975456 1.000000,34.950912 1.278080,30.795723 
	C1.815860,30.462296 2.215545,30.312481 2.315187,30.049139 
	C7.313107,16.840126 15.877568,7.222003 29.608490,2.717501 
	C29.895876,2.623222 29.876348,1.593387 30.000000,1.000000 
	C34.024544,1.000000 38.049088,1.000000 42.536835,1.468657 
	C43.054150,12.620309 43.108269,23.303303 43.098995,34.427326 
	C42.985729,37.499886 42.935856,40.131416 42.885986,42.762947 
z"/>
<path fill="#45525B" opacity="1.000000" stroke="none" 
	d="
M42.984974,42.826599 
	C42.935856,40.131416 42.985729,37.499886 43.367790,34.179520 
	C46.942612,19.343979 55.554104,9.709439 68.578445,3.708594 
	C69.862389,3.117029 70.866180,1.917399 72.000000,1.000000 
	C76.298561,1.000000 80.597130,1.000000 85.000000,1.000000 
	C85.000000,14.687413 85.000000,28.375048 84.531342,42.531338 
	C70.445892,43.029179 56.829102,43.058361 43.212311,43.087543 
	C43.212311,43.087543 43.083961,42.890247 42.984974,42.826599 
z"/>
<path fill="#A8BBC6" opacity="1.000000" stroke="none" 
	d="
M43.140457,43.526062 
	C56.829102,43.058361 70.445892,43.029179 84.531342,42.999996 
	C85.000000,47.024544 85.000000,51.049088 84.723145,55.201073 
	C82.316971,59.087734 80.358894,62.957214 78.023582,66.583778 
	C72.759125,74.759071 66.174072,81.030479 55.807758,82.229424 
	C53.753948,82.466965 51.929970,84.691673 50.000000,86.000000 
	C47.958332,86.000000 45.916668,86.000000 43.729713,85.596741 
	C43.389618,83.582237 43.042896,81.972664 43.025009,80.359451 
	C42.920200,70.907692 42.892262,61.455078 42.838394,52.002754 
	C42.915131,49.323364 42.991863,46.643970 43.140457,43.526062 
z"/>
<path fill="#000000" opacity="1.000000" stroke="none" 
	d="
M50.468658,86.000000 
	C51.929970,84.691673 53.753948,82.466965 55.807758,82.229424 
	C66.174072,81.030479 72.759125,74.759071 78.023582,66.583778 
	C80.358894,62.957214 82.316971,59.087734 84.723145,55.664261 
	C85.000000,65.932198 85.000000,75.864403 85.000000,86.000000 
	C73.646584,86.000000 62.291950,86.000000 50.468658,86.000000 
z"/>
<path fill="#000000" opacity="1.000000" stroke="none" 
	d="
M42.509258,52.192356 
	C42.892262,61.455078 42.920200,70.907692 43.025009,80.359451 
	C43.042896,81.972664 43.389618,83.582237 43.292213,85.596741 
	C32.312439,86.000000 21.624876,86.000000 10.468658,86.000000 
	C10.768940,85.331398 11.435783,84.294746 12.321997,84.048904 
	C27.751045,79.768929 39.815033,66.602432 42.509258,52.192356 
z"/>
<path fill="#000000" opacity="1.000000" stroke="none" 
	d="
M71.531342,1.000000 
	C70.866180,1.917399 69.862389,3.117029 68.578445,3.708594 
	C55.554104,9.709439 46.942612,19.343979 43.431183,33.738491 
	C43.108269,23.303303 43.054150,12.620309 43.000015,1.468657 
	C52.354229,1.000000 61.708454,1.000000 71.531342,1.000000 
z"/>
<path fill="#000000" opacity="1.000000" stroke="none" 
	d="
M29.531342,1.000000 
	C29.876348,1.593387 29.895876,2.623222 29.608490,2.717501 
	C15.877568,7.222003 7.313107,16.840126 2.315187,30.049139 
	C2.215545,30.312481 1.815860,30.462296 1.278080,30.332539 
	C1.000000,20.406855 1.000000,10.813709 1.000000,1.000000 
	C10.353074,1.000000 19.707878,1.000000 29.531342,1.000000 
z"/>
</svg>